# xmcd CD database file
#
# Track frame offsets:
#	150
#	13807
#	25419
#	38516
#	53793
#	65508
#	80181
#	94330
#	105405
#	119227
#	133733
#
# Disc length: 1923 seconds
#
# Revision: 0
# Processed by: cddbd v1.5.2PL0 Copyright (c) Steve Scherf et al.
# Submitted via: CDex 1.70beta3
#
DISCID=9a07810b
DTITLE=Marlena Shaw - Out Of Different Bags
DYEAR=1967
DGENRE=Jazz
TTITLE0=Matchmaker, Matchmaker
TTITLE1=The Eyes Of Love (Carol's Theme)
TTITLE2=Nothing But Tears
TTITLE3=Will I Find My Love Today
TTITLE4=It Sure Is Groovy
TTITLE5=I've Gotten Over You
TTITLE6=Ahmad's Blues
TTITLE7=A Couple Of Losers
TTITLE8=I Stayed Too Longat The Fair
TTITLE9=Alone Together
TTITLE10=Somewhere In The Night (Naked City Theme)
EXTD=YEAR: 1967
EXTT0=
EXTT1=
EXTT2=
EXTT3=
EXTT4=
EXTT5=
EXTT6=
EXTT7=
EXTT8=
EXTT9=
EXTT10=
PLAYORDER=
